<?xml version="1.0" standalone="no"?>
<!DOCTYPE svg PUBLIC "-//W3C//DTD SVG 20010904//EN"
 "http://www.w3.org/TR/2001/REC-SVG-20010904/DTD/svg10.dtd">
<svg version="1.0" xmlns="http://www.w3.org/2000/svg"
 width="1296.000000pt" height="1296.000000pt" viewBox="0 0 1296.000000 1296.000000"
 preserveAspectRatio="xMidYMid meet">
<metadata>
Created by potrace 1.11, written by Peter Selinger 2001-2013
</metadata>
<g transform="translate(0.000000,1296.000000) scale(0.100000,-0.100000)"
fill="#000000" stroke="none">
<path d="M3110 11291 c-49 -10 -75 -26 -101 -62 -56 -80 -67 -227 -24 -354 69
-210 290 -621 651 -1214 52 -84 94 -157 94 -162 0 -5 5 -9 10 -9 6 0 10 -4 10
-9 0 -6 43 -78 95 -161 52 -83 95 -153 95 -155 0 -3 15 -28 34 -57 181 -284
472 -868 581 -1168 15 -41 33 -91 40 -111 33 -89 90 -294 115 -414 64 -311 59
-588 -15 -861 -22 -82 -36 -123 -64 -189 -120 -282 -241 -446 -571 -775 -261
-260 -321 -326 -444 -484 -195 -250 -300 -444 -311 -574 -15 -175 -42 -304
-95 -457 -17 -49 -33 -94 -34 -100 -2 -5 -7 -19 -11 -30 -99 -250 -194 -461
-324 -715 -128 -252 -246 -490 -269 -540 -11 -25 -30 -67 -42 -95 -128 -284
-200 -534 -205 -717 -4 -129 5 -170 53 -220 128 -136 514 42 952 437 83 75
395 390 475 480 44 49 100 112 125 140 57 62 198 228 265 310 179 220 649 814
710 896 26 36 228 293 235 299 3 3 27 34 55 70 27 36 52 67 56 70 3 3 19 23
35 45 29 41 389 500 409 521 5 7 18 23 27 36 22 30 250 322 284 363 20 25 26
27 34 15 5 -8 28 -42 52 -74 24 -33 72 -101 108 -152 109 -156 702 -991 751
-1057 131 -178 132 -179 240 -317 162 -206 471 -535 644 -686 314 -275 551
-340 683 -189 35 39 78 119 86 156 3 13 9 48 15 78 41 207 -33 565 -209 1007
-74 185 -119 284 -277 604 -373 756 -543 1184 -588 1480 -12 73 -14 350 -4
415 5 33 12 76 14 95 22 149 112 405 200 570 55 103 177 292 232 359 201 247
572 629 1044 1072 143 136 150 142 285 264 48 44 98 89 110 100 12 11 66 61
120 110 234 214 589 563 710 700 172 194 283 367 340 530 36 106 40 236 7 306
-59 131 -198 219 -578 370 -272 107 -463 165 -581 176 -274 23 -712 -177
-1054 -482 -138 -123 -168 -150 -265 -240 -55 -52 -111 -103 -125 -115 -59
-51 -440 -411 -595 -561 -77 -75 -172 -167 -211 -205 -39 -38 -204 -198 -365
-355 -162 -158 -334 -326 -384 -374 -49 -47 -138 -133 -196 -191 l-105 -104
-80 86 c-43 47 -89 98 -102 112 -12 14 -64 71 -115 126 -125 137 -306 335
-397 434 -41 46 -95 105 -120 131 -68 73 -213 231 -233 255 -77 89 -258 278
-461 481 -255 254 -272 270 -506 475 -58 51 -261 211 -340 267 -296 213 -545
320 -680 294z"/>
</g>
</svg>
